<?xml version="1.0" encoding="utf-8"?>
<!-- Generator: Adobe Illustrator 25.0.0, SVG Export Plug-In . SVG Version: 6.00 Build 0)  -->
<svg version="1.1" id="Layer_1" xmlns="http://www.w3.org/2000/svg" xmlns:xlink="http://www.w3.org/1999/xlink" x="0px" y="0px"
	 viewBox="0 0 540.1 93.4" style="enable-background:new 0 0 540.1 93.4;" xml:space="preserve">
<style type="text/css">
	.st0{fill:#6759C0;}
</style>
<g>
	<path class="st0" d="M185.1,93.4h-6.3V26.9c2.4-0.8,4.8-1.4,7.2-1.9c3.7-0.6,7.4-0.9,11.1-0.9c3.4-0.1,6.9,0.6,10.1,1.8
		c2.9,1.2,5.6,2.9,7.8,5.2c2.2,2.4,4,5.2,5.1,8.3c1.2,3.5,1.8,7.3,1.8,11c0,3.6-0.5,7.1-1.5,10.5c-0.9,3-2.4,5.8-4.4,8.3
		c-1.9,2.3-4.4,4.1-7.1,5.4c-3.1,1.4-6.4,2-9.7,2c-2.9,0.1-5.9-0.4-8.6-1.4c-1.9-0.7-3.7-1.6-5.3-2.7L185.1,93.4z M185.1,66.4
		c0.7,0.5,1.4,1,2.2,1.5c1,0.6,2,1.1,3.1,1.5c1.2,0.5,2.5,0.8,3.8,1.1c1.4,0.3,2.8,0.4,4.3,0.4c2.7,0.1,5.4-0.5,7.8-1.6
		c2-1,3.8-2.5,5.1-4.4c1.4-2,2.3-4.2,2.8-6.5c0.6-2.6,0.9-5.3,0.9-7.9c0-6.6-1.7-11.7-4.9-15.2c-3.3-3.5-7.7-5.3-13.1-5.3
		c-2.5,0-5,0.1-7.5,0.4c-1.5,0.2-2.9,0.5-4.3,0.9L185.1,66.4z"/>
	<path class="st0" d="M248.2,76.3c-1.9,0-3.8-0.3-5.6-0.8c-1.5-0.4-2.9-1.2-4-2.2c-1.1-1.1-2-2.4-2.4-3.9c-0.6-1.9-0.9-4-0.8-6V1.2
		l6.3-1.2v63.2c0,1.3,0.1,2.5,0.4,3.7c0.2,0.8,0.7,1.6,1.3,2.2c0.6,0.6,1.4,1,2.3,1.2c1.1,0.3,2.2,0.5,3.4,0.7L248.2,76.3z"/>
	<path class="st0" d="M303.2,50.4c0,3.7-0.5,7.3-1.7,10.8c-1,3-2.6,5.9-4.8,8.3c-2,2.3-4.5,4.1-7.2,5.3c-5.9,2.5-12.6,2.5-18.5,0
		c-2.8-1.2-5.2-3-7.2-5.3c-2.1-2.4-3.7-5.2-4.7-8.3c-1.2-3.5-1.7-7.1-1.7-10.8c0-3.7,0.5-7.3,1.7-10.8c1-3.1,2.6-5.9,4.8-8.3
		c2-2.3,4.5-4.1,7.2-5.3c5.9-2.5,12.6-2.5,18.5,0c2.8,1.2,5.2,3.1,7.2,5.3c2.1,2.4,3.7,5.3,4.8,8.3
		C302.7,43.1,303.2,46.7,303.2,50.4L303.2,50.4z M296.5,50.4c0-6.3-1.5-11.3-4.4-15c-5.4-6.6-15.1-7.5-21.7-2.1
		c-0.8,0.6-1.4,1.3-2.1,2.1c-2.9,3.7-4.4,8.7-4.4,15s1.5,11.3,4.4,15c5.5,6.6,15.3,7.4,21.8,1.9c0.7-0.6,1.3-1.2,1.9-1.9
		C295,61.7,296.5,56.7,296.5,50.4z"/>
	<path class="st0" d="M359.8,50.4c0,3.7-0.5,7.3-1.7,10.8c-1,3-2.6,5.9-4.8,8.3c-2,2.3-4.5,4.1-7.2,5.3c-5.9,2.5-12.6,2.5-18.5,0
		c-2.8-1.2-5.2-3-7.2-5.3c-2.1-2.4-3.7-5.2-4.8-8.3c-1.2-3.5-1.7-7.1-1.7-10.8c0-3.7,0.5-7.3,1.7-10.8c1-3.1,2.7-5.9,4.8-8.3
		c2-2.3,4.5-4.1,7.2-5.3c5.9-2.5,12.6-2.5,18.5,0c2.8,1.2,5.2,3.1,7.2,5.3c2.1,2.4,3.7,5.3,4.8,8.3
		C359.2,43.1,359.8,46.7,359.8,50.4z M353.1,50.4c0-6.3-1.5-11.3-4.4-15c-5.4-6.6-15.1-7.5-21.7-2.1c-0.8,0.6-1.4,1.3-2.1,2.1
		c-2.9,3.7-4.4,8.7-4.4,15s1.5,11.3,4.4,15c5.5,6.6,15.2,7.4,21.8,1.9c0.7-0.6,1.4-1.2,1.9-1.9C351.6,61.7,353.1,56.7,353.1,50.4z"
		/>
	<path class="st0" d="M373.5,26.9c1.9-0.5,4.3-1.1,7.3-1.8c3.9-0.7,7.8-1.1,11.7-1c6.3,0,10.9,1.9,13.8,5.6c0.3-0.3,1-0.7,1.9-1.3
		c2.6-1.7,5.5-2.9,8.5-3.5c2.1-0.5,4.2-0.7,6.4-0.7c3.2-0.1,6.4,0.5,9.3,1.7c2.3,1,4.2,2.7,5.5,4.8c1.4,2.2,2.2,4.7,2.6,7.3
		c0.5,3.1,0.7,6.2,0.7,9.3v28.1h-6.3v-26c0-2.9-0.1-5.8-0.4-8.6c-0.2-2.1-0.8-4.1-1.8-6c-0.8-1.6-2.2-2.8-3.8-3.6
		c-2-0.9-4.1-1.3-6.3-1.2c-1.8,0-3.6,0.2-5.3,0.5c-1.4,0.3-2.8,0.7-4.1,1.3c-1,0.4-2,0.9-2.9,1.5c-0.8,0.5-1.3,0.9-1.6,1.2
		c0.6,1.8,1.1,3.8,1.3,5.7c0.3,2.2,0.5,4.4,0.4,6.7v28.5h-6.3V49.4c0-2.9-0.1-5.8-0.4-8.6c-0.2-2.1-0.8-4.1-1.8-6
		c-0.9-1.6-2.2-2.8-3.8-3.6c-2.1-0.9-4.3-1.3-6.6-1.2c-2.6,0-5.2,0.1-7.7,0.5c-1.4,0.2-2.7,0.4-4,0.9v44.1h-6.3L373.5,26.9z"/>
	<path class="st0" d="M454.4,50.3c-0.1-3.9,0.6-7.8,1.9-11.5c1.1-3,2.8-5.8,5-8.2c1.9-2.1,4.3-3.8,7-4.9c2.6-1.1,5.3-1.6,8.1-1.6
		c6.2,0,11.1,2,14.7,6s5.5,10.2,5.5,18.6v1.6c0,0-0.1,1-0.1,1.5h-35.4c0.2,6.2,1.7,10.9,4.6,14.2c2.9,3.3,7.4,5,13.6,5
		c2.8,0.1,5.5-0.3,8.2-1c1.5-0.5,3-1,4.4-1.7l1.2,5.5c-1.6,0.8-3.3,1.4-5.1,1.8c-2.9,0.8-5.8,1.1-8.8,1.1c-3.9,0.1-7.7-0.6-11.3-1.9
		c-3-1.2-5.6-3.1-7.7-5.4c-2.1-2.4-3.6-5.2-4.4-8.3C454.8,57.4,454.4,53.8,454.4,50.3z M490.1,46.3C490,41,488.7,37,486.4,34
		c-2.3-2.9-5.6-4.4-9.9-4.4c-2.1,0-4.2,0.4-6.1,1.4c-1.8,0.9-3.4,2.1-4.7,3.6c-1.4,1.6-2.4,3.4-3.1,5.3c-0.7,2-1.2,4.2-1.3,6.3
		L490.1,46.3z"/>
	<path class="st0" d="M521,71c3.1,0.1,6.2-0.5,9-1.8c2.3-1.1,3.7-3.5,3.5-6.1c0-1.2-0.2-2.4-0.6-3.5c-0.5-1-1.2-1.9-2.1-2.6
		c-1.2-0.9-2.5-1.7-3.8-2.2c-1.6-0.7-3.5-1.6-5.9-2.5c-1.9-0.8-3.7-1.6-5.3-2.4c-1.6-0.8-3.1-1.7-4.5-2.8c-1.3-1.1-2.3-2.4-3.1-3.8
		c-0.8-1.7-1.2-3.6-1.2-5.4c-0.1-3.8,1.6-7.5,4.6-9.9c3.1-2.5,7.3-3.8,12.7-3.8c2.9-0.1,5.7,0.2,8.5,0.9c1.6,0.4,3.2,0.9,4.7,1.6
		l-1.5,5.6c-1.3-0.6-2.6-1.1-3.9-1.6c-2.6-0.8-5.4-1.1-8.1-1c-1.3,0-2.7,0.1-4,0.4c-1.2,0.3-2.3,0.7-3.4,1.4
		c-0.9,0.6-1.7,1.4-2.3,2.3c-0.6,1-0.9,2.2-0.9,3.5c0,1.2,0.2,2.4,0.8,3.5c0.6,1,1.3,1.9,2.3,2.6c1.1,0.8,2.4,1.5,3.7,2.1
		c1.5,0.7,3.1,1.4,5,2.1s3.7,1.5,5.6,2.4c1.7,0.8,3.3,1.7,4.7,2.9c1.4,1.1,2.5,2.5,3.3,4.1c0.9,1.9,1.3,3.9,1.3,6
		c0,4.5-1.7,8-5.1,10.3c-3.4,2.3-8.1,3.5-14,3.5c-3.4,0.1-6.8-0.3-10.1-1.1c-1.6-0.5-3.2-1-4.7-1.7l1.6-5.7c0.4,0.2,0.8,0.4,1.3,0.6
		c0.9,0.4,1.7,0.7,2.6,1c1.3,0.4,2.6,0.7,3.9,0.9C517.4,70.9,519.2,71,521,71L521,71z"/>
	<path class="st0" d="M147.7,43.2c0.1,0.6-0.3,1.1-0.9,1.2c-0.4,0.1-0.8-0.1-1.1-0.5c-3.1-4.7-6.9-9-11.2-12.7c0,0-2.7-2.2-2.7-2.2
		c-9.4-7.2-20.6-11.5-32.4-12.5h-0.1c-1.6-0.1-3.3-0.2-4.9-0.2c-7.5,0-15,1.4-22,4.1c15.5,6.9,25.9,21.9,27.1,38.8
		c0,0.4,0.1,0.8,0.1,1.3v2.1c0,1.2-0.1,2.4-0.1,2.4c-1,11-7.9,20.7-18,25.2c0,0-1.2,0.5-1.7,0.7c-2.1,0.8-4.3,1.4-6.6,1.7
		c-2.7,0.5-5.5,0.7-8.3,0.8c-7.4,0-14.6-1.8-21.2-5.1c-2.6-1.2-5.1-2.6-7.5-4.1c-1.1-0.7-2.2-1.4-3.3-2.2
		C22.5,74.6,14,64.8,8.2,53.4c-0.9-1.8-1.7-3.6-2.5-5.4C1.9,38.7,0,28.8,0,18.8v-0.5c0-0.6,0.5-1.1,1.1-1.1c0.2,0,0.4,0.1,0.6,0.2
		c7,4.4,15.1,6.7,23.3,6.9h1h1.7c8.6-0.3,17-3,24.2-7.9c0,0,0,0,0,0c0.9-0.6,1.7-1.2,2.5-1.9c0.4-0.3,0.9-0.7,1.3-1
		C66.5,5,79.9,0.3,93.6,0.3c2,0,3.9,0.1,5.8,0.3c9.3,0.9,18.2,3.8,26.2,8.7l0.9,0.6l0.4,0.2l1.1,0.7c2.4,1.6,4.6,3.4,6.6,5.5
		c6.3,6.3,10.6,14.2,12.4,22.9C147.3,40.5,147.5,41.8,147.7,43.2L147.7,43.2z"/>
	<circle class="st0" cx="99.4" cy="25.4" r="3.8"/>
</g>
</svg>
